<svg width="16" height="16" viewBox="0 0 16 16" fill="none" xmlns="http://www.w3.org/2000/svg">
<path fill-rule="evenodd" clip-rule="evenodd" d="M11.2548 15.5H4.7445C2.20577 15.5 0.5 13.7183 0.5 11.0668V4.93316C0.5 2.28167 2.20577 0.5 4.7445 0.5H7.5031C7.80854 0.5 8.05644 0.747885 8.05644 1.05331C8.05644 1.35874 7.80854 1.60663 7.5031 1.60663H4.7445C2.83806 1.60663 1.60668 2.91245 1.60668 4.93316V11.0668C1.60668 13.0875 2.83806 14.3934 4.7445 14.3934H11.2548C13.1612 14.3934 14.3933 13.0875 14.3933 11.0668V8.09517C14.3933 7.78974 14.6412 7.54185 14.9467 7.54185C15.2521 7.54185 15.5 7.78974 15.5 8.09517V11.0668C15.5 13.7183 13.7935 15.5 11.2548 15.5Z" fill="white"/>
<path fill-rule="evenodd" clip-rule="evenodd" d="M8.16444 7.83556C7.94519 7.61631 7.94519 7.26043 8.16444 7.04118L14.5412 0.664437C14.7604 0.445188 15.1163 0.445188 15.3356 0.664437C15.5548 0.883685 15.5548 1.23957 15.3356 1.45882L8.95882 7.83556C8.73957 8.05481 8.38369 8.05481 8.16444 7.83556Z" fill="white"/>
<path fill-rule="evenodd" clip-rule="evenodd" d="M11.1752 1.53081C11.0672 1.42288 11 1.27315 11 1.10816C10.9994 0.777607 11.2662 0.508646 11.5979 0.508081L14.8998 0.500736C15.2186 0.499606 15.5011 0.782127 15.5 1.10081L15.4932 4.40292C15.4921 4.73403 15.2237 5.0013 14.8931 5.00073C14.5619 4.9996 14.294 4.73177 14.2952 4.40066L14.3003 1.70032L11.6002 1.70597C11.434 1.7071 11.2837 1.6393 11.1752 1.53081Z" fill="white"/>
</svg>
